EMG
version=1
nRows=34
nColumns=17
inDegrees=no
endheader
time	_right_gast_med	_right_glut_max	_left_gast_med	_left_glut_max	_right_glut_med	_right_bic_fem	_right_rect_fem	_right_vast_lat	_right_vast_med	_right_tens_fasc_lat	_left_glut_med	_left_bic_fem	_left_rect_fem	_left_vast_lat	_left_vast_med	_left_tens_fasc_lat
      0.88000000	      0.76963413	     -0.13751990	     -0.00741594	      0.02714981	      0.00837773	      0.00983584	     -0.00350542	      0.01793401	      0.05364592	     -0.00559247	      0.00875626	      0.01479042	      0.00730682	      0.00157217	     -0.06298791	      0.00061677
      0.89000000	      0.82116246	     -0.10815736	     -0.00710467	      0.02561995	      0.00763493	      0.00653138	     -0.00032774	      0.00965171	      0.04953147	     -0.00469323	      0.01463207	      0.02093087	      0.00976340	      0.00799091	      0.01670067	     -0.04673806
      0.90000000	      0.72505826	      0.03047924	      0.03295987	      0.03051445	      0.00419279	     -0.00212113	      0.00561553	     -0.00029097	      0.04818767	     -0.00374358	      0.02543914	      0.01795221	      0.01121401	     -0.00299395	      0.05034035	     -0.06583168
      0.91000000	      0.59227264	      0.05995340	      0.05494403	      0.04685188	     -0.00457524	     -0.01512388	      0.00723847	     -0.00735187	      0.04633889	     -0.00568983	      0.03722389	      0.00753607	      0.00764059	     -0.01123183	      0.02879471	     -0.03469170
      0.92000000	      0.48586944	     -0.07439476	     -0.00700806	      0.01867184	     -0.00933286	     -0.00564691	      0.00427261	     -0.00846477	      0.03566119	     -0.00120883	      0.04153096	     -0.00013148	      0.00368756	     -0.01098957	      0.01796382	      0.01325212
      0.93000000	      0.39754575	     -0.10333285	     -0.02730894	     -0.01973630	     -0.00630309	      0.00052806	      0.00070270	     -0.00356343	      0.02520629	      0.00492315	      0.02411987	      0.00177674	      0.00443094	     -0.01034904	      0.03319723	      0.03837870
      0.94000000	      0.30079710	     -0.02677387	     -0.00185252	      0.49813128	      0.00174860	      0.00326786	      0.00634342	      0.00169966	      0.02148496	      0.01189403	     -0.00010957	      0.01016202	      0.00374731	     -0.00660617	      0.03147072	      0.02991599
      0.95000000	      0.20725454	      0.01630814	     -0.00096756	      1.17866600	      0.00655402	      0.00269323	      0.00850981	      0.00765017	      0.02274014	      0.01307813	     -0.00667142	      0.01732811	      0.00116914	      0.00445508	     -0.01266369	      0.00630802
      0.96000000	      0.14947155	      0.00370483	      0.01218235	     -0.93088615	      0.00742649	      0.01093357	      0.00227917	      0.01372406	      0.01779624	      0.01157942	     -0.00133937	      0.01773433	      0.00831185	      0.02130673	     -0.08409943	     -0.00613769
      0.97000000	      0.12219222	     -0.01088845	      0.07060494	     -2.70780039	      0.00943459	      0.02360687	      0.00451490	      0.01792917	      0.00454356	      0.01046926	      0.00393364	      0.01947100	      0.02277393	      0.02041049	     -0.09043263	     -0.00065043
      0.98000000	      0.09540623	     -0.01355834	      0.07371322	     -1.41600537	      0.01237034	      0.02277015	      0.01393452	      0.01661739	     -0.00559635	      0.01216463	      0.00630687	      0.02702974	      0.02531312	     -0.00542904	      0.00388109	      0.00789126
      0.99000000	      0.06342115	     -0.01416545	     -0.06315212	      0.24990641	      0.01887880	      0.01781424	      0.01802817	      0.02819469	     -0.00985433	      0.01119866	      0.00644851	      0.03392647	      0.01979442	     -0.00127505	      0.08208141	      0.01415075
      1.00000000	      0.03165963	     -0.00675977	     -0.07137103	      0.86789274	      0.02464533	      0.02562359	      0.01095657	      0.03278783	     -0.01341298	      0.01195854	      0.00098430	      0.01938965	      0.01249072	      0.02083661	      0.08494360	      0.02338795
      1.01000000	      0.00471593	      0.00164465	     -0.01742708	      0.92113292	      0.01927503	      0.03189184	      0.00770257	      0.03826550	     -0.01327067	      0.01713215	     -0.00354458	      0.00667625	      0.01263871	      0.02341345	      0.04289159	      0.02977704
      1.02000000	      0.00026639	      0.00509366	      0.04530081	      0.82889432	      0.00713007	      0.02327893	      0.01221037	      0.02441463	     -0.00864098	      0.01228222	      0.00142474	      0.01471215	      0.01203633	      0.01752731	     -0.00097652	      0.03413676
      1.03000000	      0.01624013	      0.00485322	      0.02271751	      0.67620552	     -0.00122448	      0.01309294	      0.00347689	      0.00892295	     -0.00677631	      0.01280948	      0.01078665	      0.01368830	      0.00114401	      0.00959198	     -0.02546097	      0.03865696
      1.04000000	      0.01418841	      0.00708806	     -0.00768894	      0.52270043	      0.00051517	      0.01627076	     -0.00352015	      0.00607711	     -0.00530131	      0.01836611	      0.01714085	      0.00992682	     -0.00364710	      0.00938200	     -0.00826813	      0.03927828
      1.05000000	     -0.01850432	      0.01970259	     -0.01790243	      0.40528291	      0.00201217	      0.02453342	      0.02068493	      0.00283398	     -0.00326631	      0.01350547	      0.01632585	      0.00918987	      0.00617595	      0.01939566	      0.01504785	      0.03201710
      1.06000000	     -0.03833367	      0.03488639	      0.04760648	      0.30315918	      0.00188560	      0.01099005	      0.08091880	      0.00012332	     -0.00240108	      0.01762224	      0.01639381	      0.00441592	      0.01303939	      0.02179982	     -0.01457979	      0.02338851
      1.07000000	     -0.03381718	      0.00801047	      0.03181865	      0.20821640	     -0.00377927	      0.00406020	      0.08404882	      0.02480211	     -0.00025259	      0.03496610	      0.01731741	     -0.00049844	      0.00855051	      0.00442200	     -0.06081315	      0.01674965
      1.08000000	     -0.02542855	     -0.04178321	     -0.02364523	      0.12744018	     -0.00372257	      0.00637837	     -0.00680152	      0.05581697	     -0.00033549	      0.04568705	      0.01188181	     -0.00825348	      0.00449709	     -0.00421180	     -0.04425421	      0.00979805
      1.09000000	     -0.01524422	     -0.05027494	      0.00504188	      0.06534036	     -0.00058599	      0.00003779	     -0.06998450	      0.00262561	      0.00779067	      0.02987273	      0.00964046	     -0.01085199	      0.00424107	      0.00009482	      0.00814603	      0.00162023
      1.10000000	     -0.00834421	     -0.01972671	     -0.01289022	      0.01295951	     -0.00396288	      0.00487842	     -0.06850968	     -0.03712346	      0.09464179	      0.00401136	      0.01155396	     -0.01801217	      0.00857222	      0.00351361	      0.02860093	     -0.00413574
      1.11000000	     -0.00893016	      0.01807603	      0.00048226	     -0.03999492	     -0.00957087	      0.00938778	     -0.03977461	     -0.00591644	      0.14627960	     -0.00638124	      0.00989717	     -0.01861459	      0.01371670	      0.00921385	      0.03069014	     -0.00670663
      1.12000000	     -0.01905475	      0.04418374	      0.01449181	     -0.09300194	     -0.00450086	      0.01412710	     -0.02558830	      0.00024113	      0.06758515	     -0.01285827	      0.00934883	      0.00598211	      0.01261310	      0.00713097	      0.02962147	     -0.00836662
      1.13000000	     -0.02184066	      0.05002822	      0.01647781	     -0.14186645	      0.00623380	      0.00873187	     -0.01216125	     -0.02157158	      0.03537846	     -0.01769138	      0.01040093	      0.02704220	      0.00827761	      0.00290734	      0.02314150	     -0.01715097
      1.14000000	     -0.04476379	      0.04031656	      0.02253712	     -0.17966534	      0.02132124	     -0.04867676	      0.01238266	     -0.04422117	      0.10956710	     -0.00914959	      0.01310994	      0.02983580	      0.00507166	      0.01095286	      0.01008059	     -0.02268837
      1.15000000	     -0.07392848	      0.01395319	      0.01584805	     -0.19313282	      0.03208667	     -0.04760497	      0.01859585	     -0.02108967	      0.14902446	      0.01059399	      0.01766233	      0.02402068	      0.01003880	      0.02068327	      0.01139013	     -0.02240293
      1.16000000	      0.00060656	      0.02770455	      0.01116883	     -0.17608772	      0.01167456	      0.08608120	      0.02185153	      0.00593368	      0.06993831	      0.02017060	      0.01663518	      0.01366562	      0.01682123	      0.01966340	      0.03393584	     -0.03065354
      1.17000000	      0.04589133	      0.05336832	      0.00793333	     -0.13811895	      0.03073700	      0.14957909	      0.03127042	     -0.00843595	     -0.06955266	      0.01751734	      0.00558781	      0.00509153	      0.00863671	      0.01935456	      0.03644765	     -0.02973247
      1.18000000	     -0.00475297	     -0.01016100	      0.00445010	     -0.09894692	      0.06948616	      0.03785958	      0.00060178	      0.05557389	     -0.07804816	      0.00724668	     -0.00477629	      0.00522445	      0.00415819	      0.02040248	      0.00582248	     -0.01442136
      1.19000000	     -0.04904199	     -0.04486753	      0.00412918	     -0.08087797	      0.04020561	     -0.08766494	      0.01039577	      0.12629698	      0.00285389	      0.00104651	     -0.00594729	      0.00718189	      0.01386045	      0.01140681	     -0.00661349	     -0.00374021
      1.20000000	      0.30467162	     -0.01926085	      0.00613616	     -0.08100841	     -0.00639416	     -0.09411882	      0.04723948	      0.03546660	      0.04718791	     -0.01230856	     -0.00569214	      0.01068234	      0.01042986	     -0.00195855	      0.04321713	      0.00215434
      1.21000000	      0.60027575	     -0.02244032	      0.00958292	     -0.07688638	     -0.01831829	     -0.02356553	      0.03912374	     -0.04218440	      0.00789069	     -0.02571862	     -0.00314784	      0.00638847	      0.00674913	     -0.01547103	      0.11167438	      0.04291844
